<svg xmlns="http://www.w3.org/2000/svg" xmlns:xlink="http://www.w3.org/1999/xlink" width="2000" zoomAndPan="magnify" viewBox="0 0 1500 749.999995" height="1000" preserveAspectRatio="xMidYMid meet" version="1.0"><defs><g/><clipPath id="9da1a0f4eb"><path d="M 151.824219 34.300781 L 1375 34.300781 L 1375 719.742188 L 151.824219 719.742188 Z M 151.824219 34.300781 " clip-rule="nonzero"/></clipPath><clipPath id="0368e4b1f1"><path d="M 762.925781 34.300781 C 425.425781 34.300781 151.824219 187.742188 151.824219 377.019531 C 151.824219 566.300781 425.425781 719.742188 762.925781 719.742188 C 1100.425781 719.742188 1374.027344 566.300781 1374.027344 377.019531 C 1374.027344 187.742188 1100.425781 34.300781 762.925781 34.300781 Z M 762.925781 34.300781 " clip-rule="nonzero"/></clipPath><clipPath id="3614e1caa9"><path d="M 0.824219 0.300781 L 1221.765625 0.300781 L 1221.765625 685.742188 L 0.824219 685.742188 Z M 0.824219 0.300781 " clip-rule="nonzero"/></clipPath><clipPath id="7db2da65de"><path d="M 611.925781 0.300781 C 274.425781 0.300781 0.824219 153.742188 0.824219 343.019531 C 0.824219 532.300781 274.425781 685.742188 611.925781 685.742188 C 949.425781 685.742188 1223.027344 532.300781 1223.027344 343.019531 C 1223.027344 153.742188 949.425781 0.300781 611.925781 0.300781 Z M 611.925781 0.300781 " clip-rule="nonzero"/></clipPath><radialGradient gradientTransform="matrix(1, 0, 0, 1, 0.821927, 0.300547)" gradientUnits="userSpaceOnUse" r="700.643554" cx="611.099807" id="237078fe0a" cy="342.720334" fx="611.099807" fy="342.720334"><stop stop-opacity="1" stop-color="rgb(0.831604%, 3.215027%, 3.649902%)" offset="0"/><stop stop-opacity="1" stop-color="rgb(0.961304%, 3.407288%, 3.952026%)" offset="0.0078125"/><stop stop-opacity="1" stop-color="rgb(1.116943%, 3.636169%, 4.315186%)" offset="0.0195312"/><stop stop-opacity="1" stop-color="rgb(1.274109%, 3.866577%, 4.678345%)" offset="0.03125"/><stop stop-opacity="1" stop-color="rgb(1.429749%, 4.096985%, 5.041504%)" offset="0.0429688"/><stop stop-opacity="1" stop-color="rgb(1.586914%, 4.325867%, 5.404663%)" offset="0.0546875"/><stop stop-opacity="1" stop-color="rgb(1.742554%, 4.556274%, 5.767822%)" offset="0.0664062"/><stop stop-opacity="1" stop-color="rgb(1.899719%, 4.785156%, 6.130981%)" offset="0.078125"/><stop stop-opacity="1" stop-color="rgb(2.055359%, 5.015564%, 6.494141%)" offset="0.0898438"/><stop stop-opacity="1" stop-color="rgb(2.212524%, 5.245972%, 6.8573%)" offset="0.101562"/><stop stop-opacity="1" stop-color="rgb(2.368164%, 5.474854%, 7.220459%)" offset="0.113281"/><stop stop-opacity="1" stop-color="rgb(2.523804%, 5.705261%, 7.583618%)" offset="0.125"/><stop stop-opacity="1" stop-color="rgb(2.680969%, 5.934143%, 7.946777%)" offset="0.136719"/><stop stop-opacity="1" stop-color="rgb(2.836609%, 6.164551%, 8.309937%)" offset="0.148438"/><stop stop-opacity="1" stop-color="rgb(2.993774%, 6.394958%, 8.673096%)" offset="0.160156"/><stop stop-opacity="1" stop-color="rgb(3.149414%, 6.62384%, 9.034729%)" offset="0.171875"/><stop stop-opacity="1" stop-color="rgb(3.30658%, 6.854248%, 9.397888%)" offset="0.183594"/><stop stop-opacity="1" stop-color="rgb(3.462219%, 7.08313%, 9.761047%)" offset="0.195312"/><stop stop-opacity="1" stop-color="rgb(3.619385%, 7.313538%, 10.124207%)" offset="0.207031"/><stop stop-opacity="1" stop-color="rgb(3.775024%, 7.543945%, 10.487366%)" offset="0.21875"/><stop stop-opacity="1" stop-color="rgb(3.93219%, 7.772827%, 10.850525%)" offset="0.230469"/><stop stop-opacity="1" stop-color="rgb(4.08783%, 8.003235%, 11.213684%)" offset="0.242188"/><stop stop-opacity="1" stop-color="rgb(4.217529%, 8.19397%, 11.515808%)" offset="0.253906"/><stop stop-opacity="1" stop-color="rgb(4.322815%, 8.348083%, 11.758423%)" offset="0.261719"/><stop stop-opacity="1" stop-color="rgb(4.426575%, 8.500671%, 11.999512%)" offset="0.269531"/><stop stop-opacity="1" stop-color="rgb(4.530334%, 8.654785%, 12.242126%)" offset="0.277344"/><stop stop-opacity="1" stop-color="rgb(4.63562%, 8.807373%, 12.483215%)" offset="0.285156"/><stop stop-opacity="1" stop-color="rgb(4.73938%, 8.959961%, 12.72583%)" offset="0.292969"/><stop stop-opacity="1" stop-color="rgb(4.84314%, 9.114075%, 12.968445%)" offset="0.300781"/><stop stop-opacity="1" stop-color="rgb(4.948425%, 9.266663%, 13.209534%)" offset="0.308594"/><stop stop-opacity="1" stop-color="rgb(5.052185%, 9.420776%, 13.452148%)" offset="0.316406"/><stop stop-opacity="1" stop-color="rgb(5.155945%, 9.573364%, 13.694763%)" offset="0.324219"/><stop stop-opacity="1" stop-color="rgb(5.259705%, 9.725952%, 13.935852%)" offset="0.332031"/><stop stop-opacity="1" stop-color="rgb(5.36499%, 9.880066%, 14.178467%)" offset="0.339844"/><stop stop-opacity="1" stop-color="rgb(5.46875%, 10.032654%, 14.419556%)" offset="0.347656"/><stop stop-opacity="1" stop-color="rgb(5.57251%, 10.186768%, 14.66217%)" offset="0.355469"/><stop stop-opacity="1" stop-color="rgb(5.677795%, 10.339355%, 14.904785%)" offset="0.363281"/><stop stop-opacity="1" stop-color="rgb(5.781555%, 10.491943%, 15.145874%)" offset="0.371094"/><stop stop-opacity="1" stop-color="rgb(5.885315%, 10.646057%, 15.388489%)" offset="0.378906"/><stop stop-opacity="1" stop-color="rgb(5.990601%, 10.798645%, 15.629578%)" offset="0.386719"/><stop stop-opacity="1" stop-color="rgb(6.09436%, 10.952759%, 15.872192%)" offset="0.394531"/><stop stop-opacity="1" stop-color="rgb(6.19812%, 11.105347%, 16.114807%)" offset="0.402344"/><stop stop-opacity="1" stop-color="rgb(6.30188%, 11.257935%, 16.355896%)" offset="0.410156"/><stop stop-opacity="1" stop-color="rgb(6.407166%, 11.412048%, 16.598511%)" offset="0.417969"/><stop stop-opacity="1" stop-color="rgb(6.510925%, 11.564636%, 16.841125%)" offset="0.425781"/><stop stop-opacity="1" stop-color="rgb(6.614685%, 11.71875%, 17.082214%)" offset="0.433594"/><stop stop-opacity="1" stop-color="rgb(6.719971%, 11.871338%, 17.324829%)" offset="0.441406"/><stop stop-opacity="1" stop-color="rgb(6.82373%, 12.025452%, 17.565918%)" offset="0.449219"/><stop stop-opacity="1" stop-color="rgb(6.92749%, 12.17804%, 17.808533%)" offset="0.457031"/><stop stop-opacity="1" stop-color="rgb(7.032776%, 12.330627%, 18.051147%)" offset="0.464844"/><stop stop-opacity="1" stop-color="rgb(7.136536%, 12.484741%, 18.292236%)" offset="0.472656"/><stop stop-opacity="1" stop-color="rgb(7.240295%, 12.637329%, 18.534851%)" offset="0.480469"/><stop stop-opacity="1" stop-color="rgb(7.344055%, 12.791443%, 18.777466%)" offset="0.488281"/><stop stop-opacity="1" stop-color="rgb(7.449341%, 12.944031%, 19.018555%)" offset="0.496094"/><stop stop-opacity="1" stop-color="rgb(7.579041%, 13.134766%, 19.322205%)" offset="0.503906"/><stop stop-opacity="1" stop-color="rgb(7.736206%, 13.365173%, 19.685364%)" offset="0.515625"/><stop stop-opacity="1" stop-color="rgb(7.891846%, 13.595581%, 20.048523%)" offset="0.527344"/><stop stop-opacity="1" stop-color="rgb(8.047485%, 13.824463%, 20.410156%)" offset="0.539062"/><stop stop-opacity="1" stop-color="rgb(8.204651%, 14.054871%, 20.773315%)" offset="0.550781"/><stop stop-opacity="1" stop-color="rgb(8.360291%, 14.283752%, 21.136475%)" offset="0.5625"/><stop stop-opacity="1" stop-color="rgb(8.517456%, 14.51416%, 21.499634%)" offset="0.574219"/><stop stop-opacity="1" stop-color="rgb(8.673096%, 14.744568%, 21.862793%)" offset="0.585938"/><stop stop-opacity="1" stop-color="rgb(8.830261%, 14.97345%, 22.225952%)" offset="0.597656"/><stop stop-opacity="1" stop-color="rgb(8.985901%, 15.203857%, 22.589111%)" offset="0.609375"/><stop stop-opacity="1" stop-color="rgb(9.143066%, 15.432739%, 22.952271%)" offset="0.621094"/><stop stop-opacity="1" stop-color="rgb(9.272766%, 15.625%, 23.254395%)" offset="0.632812"/><stop stop-opacity="1" stop-color="rgb(9.376526%, 15.777588%, 23.497009%)" offset="0.640625"/><stop stop-opacity="1" stop-color="rgb(9.481812%, 15.931702%, 23.738098%)" offset="0.648438"/><stop stop-opacity="1" stop-color="rgb(9.585571%, 16.08429%, 23.980713%)" offset="0.65625"/><stop stop-opacity="1" stop-color="rgb(9.689331%, 16.238403%, 24.221802%)" offset="0.664062"/><stop stop-opacity="1" stop-color="rgb(9.794617%, 16.390991%, 24.464417%)" offset="0.671875"/><stop stop-opacity="1" stop-color="rgb(9.898376%, 16.543579%, 24.707031%)" offset="0.679688"/><stop stop-opacity="1" stop-color="rgb(10.002136%, 16.697693%, 24.94812%)" offset="0.6875"/><stop stop-opacity="1" stop-color="rgb(10.105896%, 16.850281%, 25.190735%)" offset="0.695312"/><stop stop-opacity="1" stop-color="rgb(10.211182%, 17.004395%, 25.43335%)" offset="0.703125"/><stop stop-opacity="1" stop-color="rgb(10.314941%, 17.156982%, 25.674438%)" offset="0.710938"/><stop stop-opacity="1" stop-color="rgb(10.418701%, 17.30957%, 25.917053%)" offset="0.71875"/><stop stop-opacity="1" stop-color="rgb(10.523987%, 17.463684%, 26.158142%)" offset="0.726562"/><stop stop-opacity="1" stop-color="rgb(10.627747%, 17.616272%, 26.400757%)" offset="0.734375"/><stop stop-opacity="1" stop-color="rgb(10.731506%, 17.770386%, 26.643372%)" offset="0.742188"/><stop stop-opacity="1" stop-color="rgb(10.836792%, 17.922974%, 26.88446%)" offset="0.75"/><stop stop-opacity="1" stop-color="rgb(10.966492%, 18.113708%, 27.18811%)" offset="0.757812"/><stop stop-opacity="1" stop-color="rgb(11.122131%, 18.344116%, 27.55127%)" offset="0.769531"/><stop stop-opacity="1" stop-color="rgb(11.279297%, 18.574524%, 27.914429%)" offset="0.78125"/><stop stop-opacity="1" stop-color="rgb(11.434937%, 18.803406%, 28.277588%)" offset="0.792969"/><stop stop-opacity="1" stop-color="rgb(11.592102%, 19.033813%, 28.639221%)" offset="0.804688"/><stop stop-opacity="1" stop-color="rgb(11.721802%, 19.224548%, 28.941345%)" offset="0.816406"/><stop stop-opacity="1" stop-color="rgb(11.825562%, 19.378662%, 29.18396%)" offset="0.824219"/><stop stop-opacity="1" stop-color="rgb(11.930847%, 19.53125%, 29.426575%)" offset="0.832031"/><stop stop-opacity="1" stop-color="rgb(12.034607%, 19.685364%, 29.667664%)" offset="0.839844"/><stop stop-opacity="1" stop-color="rgb(12.138367%, 19.837952%, 29.910278%)" offset="0.847656"/><stop stop-opacity="1" stop-color="rgb(12.243652%, 19.99054%, 30.152893%)" offset="0.855469"/><stop stop-opacity="1" stop-color="rgb(12.347412%, 20.144653%, 30.393982%)" offset="0.863281"/><stop stop-opacity="1" stop-color="rgb(12.451172%, 20.297241%, 30.636597%)" offset="0.871094"/><stop stop-opacity="1" stop-color="rgb(12.582397%, 20.489502%, 30.938721%)" offset="0.878906"/><stop stop-opacity="1" stop-color="rgb(12.738037%, 20.718384%, 31.30188%)" offset="0.890625"/><stop stop-opacity="1" stop-color="rgb(12.893677%, 20.948792%, 31.665039%)" offset="0.902344"/><stop stop-opacity="1" stop-color="rgb(13.024902%, 21.141052%, 31.967163%)" offset="0.914062"/><stop stop-opacity="1" stop-color="rgb(13.128662%, 21.29364%, 32.209778%)" offset="0.921875"/><stop stop-opacity="1" stop-color="rgb(13.232422%, 21.446228%, 32.450867%)" offset="0.929688"/><stop stop-opacity="1" stop-color="rgb(13.337708%, 21.600342%, 32.693481%)" offset="0.9375"/><stop stop-opacity="1" stop-color="rgb(13.467407%, 21.791077%, 32.997131%)" offset="0.945312"/><stop stop-opacity="1" stop-color="rgb(13.598633%, 21.983337%, 33.299255%)" offset="0.957031"/><stop stop-opacity="1" stop-color="rgb(13.702393%, 22.135925%, 33.540344%)" offset="0.964844"/><stop stop-opacity="1" stop-color="rgb(13.832092%, 22.328186%, 33.843994%)" offset="0.972656"/><stop stop-opacity="1" stop-color="rgb(13.963318%, 22.518921%, 34.146118%)" offset="0.984375"/><stop stop-opacity="1" stop-color="rgb(14.067078%, 22.673035%, 34.387207%)" offset="0.992188"/><stop stop-opacity="1" stop-color="rgb(14.118958%, 22.749329%, 34.509277%)" offset="1"/></radialGradient><clipPath id="6970b7b83c"><rect x="0" width="1224" y="0" height="686"/></clipPath><clipPath id="f63dd1aacc"><path d="M 151.824219 0 L 1288.824219 0 L 1288.824219 589.398438 L 151.824219 589.398438 Z M 151.824219 0 " clip-rule="nonzero"/></clipPath><clipPath id="388afe01fb"><path d="M 683 0 L 1137.824219 0 L 1137.824219 428 L 683 428 Z M 683 0 " clip-rule="nonzero"/></clipPath><clipPath id="682063abaf"><path d="M 0.824219 190 L 915 190 L 915 589.398438 L 0.824219 589.398438 Z M 0.824219 190 " clip-rule="nonzero"/></clipPath><clipPath id="9bc8cc4568"><rect x="0" width="1138" y="0" height="590"/></clipPath><clipPath id="48ad590d68"><rect x="0" width="896" y="0" height="327"/></clipPath><clipPath id="bb317d208c"><path d="M 338 572 L 433 572 L 433 605 L 338 605 Z M 338 572 " clip-rule="nonzero"/></clipPath><clipPath id="38d2d778f0"><path d="M 434.714844 583.386719 L 430.730469 616.144531 L 338.214844 604.890625 L 342.199219 572.132812 Z M 434.714844 583.386719 " clip-rule="nonzero"/></clipPath><clipPath id="f323919fc7"><path d="M 432.722656 599.765625 L 338.296875 604.902344 L 342.28125 572.144531 Z M 432.722656 599.765625 " clip-rule="nonzero"/></clipPath><clipPath id="626e12aa87"><path d="M 0.160156 0 L 94.960938 0 L 94.960938 33 L 0.160156 33 Z M 0.160156 0 " clip-rule="nonzero"/></clipPath><clipPath id="1a061dedda"><path d="M 96.714844 11.386719 L 92.730469 44.144531 L 0.214844 32.890625 L 4.199219 0.132812 Z M 96.714844 11.386719 " clip-rule="nonzero"/></clipPath><clipPath id="55dc05a6be"><path d="M 94.722656 27.765625 L 0.296875 32.902344 L 4.28125 0.144531 Z M 94.722656 27.765625 " clip-rule="nonzero"/></clipPath><clipPath id="d10f6ed142"><rect x="0" width="95" y="0" height="33"/></clipPath><clipPath id="3a975447ce"><path d="M 1291.214844 0 L 1421.714844 0 L 1421.714844 135.304688 L 1291.214844 135.304688 Z M 1291.214844 0 " clip-rule="nonzero"/></clipPath><clipPath id="e2219daeaa"><rect x="0" width="214" y="0" height="87"/></clipPath></defs><g clip-path="url(#9da1a0f4eb)"><g clip-path="url(#0368e4b1f1)"><g transform="matrix(1, 0, 0, 1, 151, 34)"><g clip-path="url(#6970b7b83c)"><g clip-path="url(#3614e1caa9)"><g clip-path="url(#7db2da65de)"><path fill="url(#237078fe0a)" d="M 0.824219 0.300781 L 0.824219 685.742188 L 1221.765625 685.742188 L 1221.765625 0.300781 Z M 0.824219 0.300781 " fill-rule="nonzero"/></g></g></g></g></g></g><g clip-path="url(#f63dd1aacc)"><g transform="matrix(1, 0, 0, 1, 151, -0.000000000000042435)"><g clip-path="url(#9bc8cc4568)"><g clip-path="url(#388afe01fb)"><path fill="#ffffff" d="M 1138.039062 200.597656 L 1018.5 211.183594 L 1017.570312 211.183594 C 1014.507812 211.449219 1011.460938 211.847656 1008.429688 212.378906 C 1005.402344 212.914062 1002.402344 213.578125 999.429688 214.371094 C 996.457031 215.164062 993.527344 216.085938 990.636719 217.136719 C 987.746094 218.1875 984.90625 219.363281 982.117188 220.660156 C 979.332031 221.960938 976.605469 223.378906 973.941406 224.914062 C 971.277344 226.453125 968.683594 228.101562 966.164062 229.863281 C 963.644531 231.628906 961.207031 233.5 958.847656 235.476562 C 956.492188 237.449219 954.226562 239.527344 952.050781 241.699219 C 949.875 243.875 947.800781 246.140625 945.824219 248.496094 C 943.847656 250.851562 941.976562 253.289062 940.210938 255.808594 C 938.445312 258.328125 936.796875 260.921875 935.257812 263.585938 C 933.71875 266.246094 932.300781 268.972656 931.003906 271.761719 C 929.703125 274.546875 928.527344 277.386719 927.476562 280.277344 C 926.425781 283.167969 925.5 286.097656 924.707031 289.070312 C 923.910156 292.042969 923.246094 295.042969 922.710938 298.070312 C 922.179688 301.101562 921.78125 304.144531 921.511719 307.210938 L 921.511719 308.140625 L 910.929688 427.582031 L 900.34375 308.140625 L 900.34375 307.210938 C 900.078125 304.148438 899.679688 301.101562 899.144531 298.074219 C 898.613281 295.042969 897.949219 292.042969 897.152344 289.074219 C 896.359375 286.101562 895.433594 283.171875 894.382812 280.285156 C 893.332031 277.394531 892.15625 274.554688 890.859375 271.769531 C 889.558594 268.980469 888.140625 266.253906 886.605469 263.59375 C 885.066406 260.929688 883.417969 258.335938 881.652344 255.816406 C 879.890625 253.300781 878.019531 250.863281 876.042969 248.507812 C 874.066406 246.148438 871.992188 243.886719 869.816406 241.710938 C 867.644531 239.535156 865.378906 237.460938 863.023438 235.484375 C 860.667969 233.507812 858.230469 231.636719 855.710938 229.875 C 853.191406 228.109375 850.601562 226.460938 847.9375 224.921875 C 845.273438 223.386719 842.546875 221.96875 839.761719 220.667969 C 836.972656 219.371094 834.132812 218.195312 831.246094 217.144531 C 828.355469 216.09375 825.425781 215.171875 822.453125 214.375 C 819.484375 213.582031 816.484375 212.917969 813.457031 212.382812 C 810.425781 211.851562 807.382812 211.449219 804.316406 211.183594 L 803.386719 211.183594 L 683.949219 200.601562 L 803.386719 190.015625 L 804.316406 190.015625 C 807.382812 189.75 810.429688 189.347656 813.457031 188.816406 C 816.488281 188.28125 819.488281 187.617188 822.457031 186.824219 C 825.429688 186.027344 828.359375 185.105469 831.25 184.054688 C 834.140625 183 836.980469 181.824219 839.765625 180.527344 C 842.554688 179.226562 845.28125 177.808594 847.945312 176.269531 C 850.609375 174.734375 853.199219 173.082031 855.71875 171.316406 C 858.238281 169.554688 860.675781 167.683594 863.03125 165.707031 C 865.386719 163.726562 867.652344 161.652344 869.828125 159.476562 C 872 157.300781 874.078125 155.035156 876.054688 152.679688 C 878.03125 150.320312 879.898438 147.882812 881.664062 145.363281 C 883.425781 142.84375 885.078125 140.25 886.613281 137.585938 C 888.152344 134.921875 889.570312 132.199219 890.867188 129.410156 C 892.164062 126.621094 893.339844 123.78125 894.390625 120.890625 C 895.441406 118 896.363281 115.070312 897.15625 112.097656 C 897.953125 109.125 898.617188 106.125 899.148438 103.097656 C 899.679688 100.066406 900.078125 97.019531 900.34375 93.957031 L 900.34375 93.027344 L 910.929688 -26.414062 L 921.511719 93.027344 L 921.511719 93.957031 C 921.777344 97.023438 922.179688 100.070312 922.710938 103.097656 C 923.242188 106.128906 923.90625 109.128906 924.699219 112.101562 C 925.496094 115.074219 926.417969 118.003906 927.46875 120.894531 C 928.519531 123.789062 929.695312 126.628906 930.996094 129.414062 C 932.292969 132.203125 933.710938 134.929688 935.25 137.59375 C 936.785156 140.261719 938.4375 142.851562 940.203125 145.371094 C 941.964844 147.894531 943.835938 150.332031 945.8125 152.6875 C 947.789062 155.042969 949.867188 157.3125 952.042969 159.484375 C 954.21875 161.660156 956.484375 163.738281 958.839844 165.714844 C 961.195312 167.691406 963.636719 169.5625 966.15625 171.328125 C 968.675781 173.089844 971.269531 174.742188 973.933594 176.277344 C 976.597656 177.816406 979.324219 179.234375 982.113281 180.535156 C 984.902344 181.832031 987.742188 183.007812 990.632812 184.058594 C 993.523438 185.109375 996.453125 186.03125 999.425781 186.828125 C 1002.398438 187.621094 1005.398438 188.285156 1008.429688 188.816406 C 1011.460938 189.351562 1014.507812 189.75 1017.570312 190.015625 L 1018.5 190.015625 Z M 1138.039062 200.597656 " fill-opacity="1" fill-rule="nonzero"/></g><g clip-path="url(#682063abaf)"><path fill="#ffffff" d="M 898.933594 214.199219 C 849.15625 210.414062 797.164062 208.359375 743.667969 208.359375 C 381.242188 208.359375 87.519531 300.699219 87.519531 414.589844 C 87.519531 527.550781 383.617188 636.726562 741.808594 638.523438 C 332.394531 638.234375 0.921875 538.070312 0.921875 414.527344 C 0.921875 290.980469 333.453125 190.59375 743.667969 190.59375 C 802.617188 190.59375 859.933594 192.644531 914.90625 196.558594 L 898.871094 214.167969 Z M 898.933594 214.199219 " fill-opacity="1" fill-rule="nonzero"/></g></g></g></g><g transform="matrix(1, 0, 0, 1, 357, 275)"><g clip-path="url(#48ad590d68)"><g fill="#ffffff" fill-opacity="1"><g transform="translate(2.88757, 249.004736)"><g><path d="M 16.484375 -234.71875 L 80.984375 -234.71875 C 79.609375 -231.570312 78.675781 -228.671875 78.1875 -226.015625 C 77.695312 -223.367188 77.453125 -220.769531 77.453125 -218.21875 C 77.453125 -211.550781 79.515625 -205.515625 83.640625 -200.109375 C 87.765625 -194.710938 93.066406 -189.410156 99.546875 -184.203125 C 106.023438 -179.003906 112.894531 -173.457031 120.15625 -167.5625 C 127.414062 -161.675781 134.332031 -154.851562 140.90625 -147.09375 C 147.488281 -139.34375 152.84375 -130.164062 156.96875 -119.5625 C 161.09375 -108.957031 163.15625 -96.394531 163.15625 -81.875 C 163.15625 -70.488281 160.648438 -59.835938 155.640625 -49.921875 C 150.640625 -40.003906 143.960938 -31.3125 135.609375 -23.84375 C 127.265625 -16.382812 118.035156 -10.546875 107.921875 -6.328125 C 97.816406 -2.109375 87.660156 0 77.453125 0 L 4.71875 0 L 4.71875 -53.015625 L 55.953125 -53.015625 C 61.054688 -53.015625 66.703125 -54.140625 72.890625 -56.390625 C 79.078125 -58.648438 84.378906 -61.890625 88.796875 -66.109375 C 93.210938 -70.335938 95.421875 -75.296875 95.421875 -80.984375 C 95.421875 -90.015625 93.40625 -97.867188 89.375 -104.546875 C 85.351562 -111.222656 80.203125 -117.257812 73.921875 -122.65625 C 67.640625 -128.0625 60.960938 -133.460938 53.890625 -138.859375 C 46.828125 -144.253906 40.148438 -150.09375 33.859375 -156.375 C 27.578125 -162.65625 22.425781 -169.96875 18.40625 -178.3125 C 14.382812 -186.664062 12.375 -196.535156 12.375 -207.921875 C 12.375 -215.773438 13.742188 -224.707031 16.484375 -234.71875 Z M 16.484375 -234.71875 "/></g></g></g><g fill="#ffffff" fill-opacity="1"><g transform="translate(170.153184, 249.004736)"><g><path d="M 85.109375 -181.703125 L 139.296875 -27.09375 L 198.203125 -118.09375 C 201.535156 -123.195312 203.890625 -127.710938 205.265625 -131.640625 C 206.640625 -135.566406 207.425781 -139.789062 207.625 -144.3125 C 208.019531 -155.101562 205.222656 -164.03125 199.234375 -171.09375 C 193.242188 -178.164062 184.359375 -181.703125 172.578125 -181.703125 Z M 0 -234.71875 L 66.5625 -234.71875 L 84.515625 -185.234375 L 84.515625 -234.71875 L 185.828125 -234.71875 C 204.285156 -234.71875 220.1875 -231.035156 233.53125 -223.671875 C 246.882812 -216.304688 257.191406 -206.390625 264.453125 -193.921875 C 271.722656 -181.460938 275.359375 -167.476562 275.359375 -151.96875 C 275.359375 -139.988281 273.738281 -129.382812 270.5 -120.15625 C 267.257812 -110.925781 263.675781 -103.171875 259.75 -96.890625 L 163.15625 53.015625 L 87.171875 53.015625 L 120.75 0 L 80.984375 0 Z M 0 -234.71875 "/></g></g></g><g fill="#ffffff" fill-opacity="1"><g transform="translate(449.616295, 249.004736)"><g><path d="M 8.828125 -234.71875 L 156.078125 -234.71875 C 169.828125 -234.71875 182.34375 -231.378906 193.625 -224.703125 C 204.914062 -218.023438 213.898438 -209.039062 220.578125 -197.75 C 227.253906 -186.46875 230.59375 -173.953125 230.59375 -160.203125 L 230.59375 0 L 166.390625 0 L 166.390625 -141.953125 C 166.390625 -149.410156 164.472656 -156.132812 160.640625 -162.125 C 156.816406 -168.113281 151.765625 -172.875 145.484375 -176.40625 C 139.203125 -179.9375 132.132812 -181.703125 124.28125 -181.703125 L 73.03125 -181.703125 L 73.03125 0 L 8.828125 0 Z M 8.828125 -234.71875 "/></g></g></g><g fill="#ffffff" fill-opacity="1"><g transform="translate(687.262981, 249.004736)"><g><path d="M 119.5625 -234.71875 L 203.203125 -234.71875 L 203.203125 -181.703125 L 138.421875 -181.703125 C 125.847656 -181.703125 114.503906 -178.660156 104.390625 -172.578125 C 94.285156 -166.492188 86.335938 -158.6875 80.546875 -149.15625 C 74.753906 -139.632812 71.859375 -129.769531 71.859375 -119.5625 C 71.859375 -107 74.703125 -95.660156 80.390625 -85.546875 C 86.085938 -75.441406 93.988281 -67.492188 104.09375 -61.703125 C 114.207031 -55.910156 125.648438 -53.015625 138.421875 -53.015625 L 203.203125 -53.015625 L 203.203125 0 L 118.984375 0 C 102.296875 0 86.929688 -3.085938 72.890625 -9.265625 C 58.847656 -15.453125 46.722656 -23.992188 36.515625 -34.890625 C 26.304688 -45.796875 18.351562 -58.460938 12.65625 -72.890625 C 6.96875 -87.316406 4.125 -102.875 4.125 -119.5625 C 4.125 -135.070312 7.265625 -149.75 13.546875 -163.59375 C 19.828125 -177.4375 28.363281 -189.707031 39.15625 -200.40625 C 49.957031 -211.101562 62.28125 -219.492188 76.125 -225.578125 C 89.96875 -231.671875 104.445312 -234.71875 119.5625 -234.71875 Z M 119.5625 -234.71875 "/></g></g></g></g></g><g clip-path="url(#bb317d208c)"><g clip-path="url(#38d2d778f0)"><g clip-path="url(#f323919fc7)"><g transform="matrix(1, 0, 0, 1, 338, 572)"><g clip-path="url(#d10f6ed142)"><g clip-path="url(#626e12aa87)"><g clip-path="url(#1a061dedda)"><g clip-path="url(#55dc05a6be)"><path fill="#ffffff" d="M 96.714844 11.386719 L 92.730469 44.144531 L 0.34375 32.90625 L 4.328125 0.148438 Z M 96.714844 11.386719 " fill-opacity="1" fill-rule="nonzero"/></g></g></g></g></g></g></g></g><g clip-path="url(#3a975447ce)"><path fill="#ffffff" d="M 1291.429688 57.433594 C 1350.46875 61.449219 1353.171875 64.691406 1356.515625 135.585938 C 1359.851562 64.691406 1362.566406 61.449219 1421.59375 57.433594 C 1362.566406 53.417969 1359.851562 50.171875 1356.515625 -20.722656 C 1353.171875 50.171875 1350.46875 53.417969 1291.429688 57.433594 Z M 1291.429688 57.433594 " fill-opacity="1" fill-rule="nonzero"/></g><g transform="matrix(1, 0, 0, 1, 995, 546)"><g clip-path="url(#e2219daeaa)"><g fill="#ffffff" fill-opacity="1"><g transform="translate(0.604332, 63.421229)"><g><path d="M 2.296875 -13.765625 L 18.359375 -13.765625 L 18.359375 0 L 2.296875 0 Z M 2.296875 -13.765625 "/></g></g></g><g fill="#ffffff" fill-opacity="1"><g transform="translate(31.870669, 63.421229)"><g><path d="M 57.828125 -23.5625 C 57.828125 -19.78125 57.035156 -16.347656 55.453125 -13.265625 C 53.867188 -10.179688 51.738281 -7.53125 49.0625 -5.3125 C 46.382812 -3.09375 43.347656 -1.382812 39.953125 -0.1875 C 36.566406 1.007812 33.066406 1.609375 29.453125 1.609375 C 25.828125 1.609375 22.316406 1.007812 18.921875 -0.1875 C 15.535156 -1.382812 12.503906 -3.09375 9.828125 -5.3125 C 7.148438 -7.53125 5.019531 -10.179688 3.4375 -13.265625 C 1.863281 -16.347656 1.078125 -19.78125 1.078125 -23.5625 C 1.078125 -27.332031 1.878906 -30.757812 3.484375 -33.84375 C 5.085938 -36.925781 7.253906 -39.585938 9.984375 -41.828125 C 12.710938 -44.078125 15.757812 -45.800781 19.125 -47 C 22.488281 -48.195312 25.953125 -48.796875 29.515625 -48.796875 C 33.035156 -48.796875 36.476562 -48.195312 39.84375 -47 C 43.207031 -45.800781 46.238281 -44.078125 48.9375 -41.828125 C 51.644531 -39.585938 53.800781 -36.925781 55.40625 -33.84375 C 57.019531 -30.757812 57.828125 -27.332031 57.828125 -23.5625 Z M 29.59375 -35.03125 C 27.5625 -35.03125 25.710938 -34.53125 24.046875 -33.53125 C 22.390625 -32.539062 21.078125 -31.175781 20.109375 -29.4375 C 19.140625 -27.707031 18.65625 -25.75 18.65625 -23.5625 C 18.65625 -20.195312 19.6875 -17.453125 21.75 -15.328125 C 23.820312 -13.210938 26.410156 -12.15625 29.515625 -12.15625 C 32.578125 -12.15625 35.128906 -13.210938 37.171875 -15.328125 C 39.210938 -17.453125 40.234375 -20.195312 40.234375 -23.5625 C 40.234375 -25.695312 39.773438 -27.628906 38.859375 -29.359375 C 37.941406 -31.097656 36.691406 -32.476562 35.109375 -33.5 C 33.523438 -34.519531 31.6875 -35.03125 29.59375 -35.03125 Z M 29.59375 -35.03125 "/></g></g></g><g fill="#ffffff" fill-opacity="1"><g transform="translate(101.343535, 63.421229)"><g><path d="M 31.671875 -47.1875 L 31.671875 -33.421875 L 25.234375 -33.421875 C 23.203125 -33.421875 21.46875 -32.65625 20.03125 -31.125 C 18.601562 -29.59375 17.890625 -27.757812 17.890625 -25.625 L 17.890625 0 L 1.828125 0 L 1.828125 -29.515625 C 1.828125 -32.785156 2.550781 -35.757812 4 -38.4375 C 5.457031 -41.113281 7.398438 -43.238281 9.828125 -44.8125 C 12.253906 -46.394531 14.941406 -47.1875 17.890625 -47.1875 Z M 31.671875 -47.1875 "/></g></g></g><g fill="#ffffff" fill-opacity="1"><g transform="translate(143.230239, 63.421229)"><g><path d="M 18.65625 13.765625 L 18.65625 0 L 34.640625 0 C 35.660156 0 36.523438 -0.40625 37.234375 -1.21875 C 37.953125 -2.039062 38.3125 -2.984375 38.3125 -4.046875 L 38.3125 -33.421875 L 26.078125 -33.421875 C 24.035156 -33.421875 22.285156 -32.65625 20.828125 -31.125 C 19.378906 -29.59375 18.65625 -27.734375 18.65625 -25.546875 C 18.65625 -23.398438 19.378906 -21.578125 20.828125 -20.078125 C 22.285156 -18.578125 24.035156 -17.828125 26.078125 -17.828125 L 34.5 -17.828125 L 34.5 -4.046875 L 22.953125 -4.046875 C 18.816406 -4.046875 15.101562 -4.988281 11.8125 -6.875 C 8.53125 -8.769531 5.921875 -11.3125 3.984375 -14.5 C 2.046875 -17.6875 1.078125 -21.21875 1.078125 -25.09375 C 1.078125 -28.144531 1.660156 -31.007812 2.828125 -33.6875 C 4.003906 -36.363281 5.625 -38.707031 7.6875 -40.71875 C 9.75 -42.738281 12.128906 -44.320312 14.828125 -45.46875 C 17.535156 -46.613281 20.445312 -47.1875 23.5625 -47.1875 L 54.375 -47.1875 L 54.375 -4.046875 C 54.375 -0.785156 53.828125 2.191406 52.734375 4.890625 C 51.640625 7.597656 49.984375 9.753906 47.765625 11.359375 C 45.546875 12.960938 42.726562 13.765625 39.3125 13.765625 Z M 18.65625 13.765625 "/></g></g></g></g></g></svg>